/* XPM */
static char * maximize_toggled_active_xpm[] = {
"20 24 5 1",
" 	c None",
".	c #939393",
"+	c #FFFFFF",
"@	c #CECECE",
"#	c #515151",
"....................",
"++++++++++++++++++++",
"@@@@@@@@@@@@@@@@@@@@",
"@@@@@@@@@@@@@@@@@@@@",
"@@@@@@@@@@@@@@@@@@@@",
"@@@@@@@@@@@@@@@@@@@@",
"@@@@@@@@@@@@@@@@@@@@",
"@@@@@@@@@@@@@@##@@@@",
"@@@@@@@@@@#@@###@@@@",
"@@@@@@@@@@#####@@@@@",
"@@@@@@@@@@####@@@@@@",
"@@@@@@@@@@####@@@@@@",
"@@@@@@@@@@#####@@@@@",
"@@@@@#####@@@@@@@@@@",
"@@@@@@####@@@@@@@@@@",
"@@@@@@####@@@@@@@@@@",
"@@@@@#####@@@@@@@@@@",
"@@@@###@@#@@@@@@@@@@",
"@@@@##@@@@@@@@@@@@@@",
"@@@@@@@@@@@@@@@@@@@@",
"@@@@@@@@@@@@@@@@@@@@",
"@@@@@@@@@@@@@@@@@@@@",
"@@@@@@@@@@@@@@@@@@@@",
"@@@@@@@@@@@@@@@@@@@@"};
