/* XPM */
static char * title_1_inactive_xpm[] = {
"2 25 12 1",
" 	c None",
".	c #939393",
"+	c #F5F5F5",
"@	c #EFEFEF",
"#	c #EDEDED",
"$	c #ECECEC",
"%	c #EBEBEB",
"&	c #EAEAEA",
"*	c #E9E9E9",
"=	c #E8E8E8",
"-	c #F0F0F0",
";	c #ADADAD",
"..",
"++",
"@@",
"@@",
"##",
"##",
"$$",
"$$",
"$$",
"%%",
"%%",
"%%",
"%%",
"&&",
"&&",
"&&",
"&&",
"**",
"**",
"**",
"==",
"==",
"==",
"--",
";;"};
