/* XPM */
static char * top_left_inactive_xpm[] = {
"3 25 11 1",
" 	c None",
".	c #939393",
"+	c #EFEFEF",
"@	c #EDEDED",
"#	c #ECECEC",
"$	c #EBEBEB",
"%	c #EAEAEA",
"&	c #E9E9E9",
"*	c #E8E8E8",
"=	c #F0F0F0",
"-	c #ADADAD",
"   ",
" ..",
" .+",
".++",
".@@",
".@@",
".##",
".##",
".##",
".$$",
".$$",
".$$",
".$$",
".%%",
".%%",
".%%",
".%%",
".&&",
".&&",
".&&",
".**",
".**",
".**",
".==",
".--"};
