/* XPM */
static char * top_left_active_xpm[] = {
"3 25 17 1",
" 	c None",
".	c #939393",
"+	c #E5E5E5",
"@	c #E0E0E0",
"#	c #DFDFDF",
"$	c #DEDEDE",
"%	c #DDDDDD",
"&	c #DCDCDC",
"*	c #DBDBDB",
"=	c #DADADA",
"-	c #D9D9D9",
";	c #D8D8D8",
">	c #D7D7D7",
",	c #D6D6D6",
"'	c #D5D5D5",
")	c #D4D4D4",
"!	c #979797",
"   ",
" ..",
" .+",
".++",
".@@",
".@@",
".##",
".$$",
".$$",
".%%",
".&&",
".&&",
".**",
".==",
".==",
".--",
".;;",
".>>",
".>>",
".,,",
".''",
".''",
".))",
".==",
".!!"};
